<?xml version="1.0" encoding="utf-8"?>
<!-- Generator: Adobe Illustrator 21.0.0, SVG Export Plug-In . SVG Version: 6.00 Build 0)  -->
<svg version="1.1" id="Layer_1" xmlns="http://www.w3.org/2000/svg" xmlns:xlink="http://www.w3.org/1999/xlink" x="0px" y="0px"
	 viewBox="0 0 115.2 39.6" style="enable-background:new 0 0 115.2 39.6;" xml:space="preserve">
<style type="text/css">
	.st0{fill:#0C81F6;}
	.st1{fill:url(#XMLID_158_);}
	.st2{fill:url(#XMLID_159_);}
	.st3{fill:url(#XMLID_160_);}
	.st4{fill:url(#XMLID_161_);}
</style>
<g id="XMLID_58_">
	<g id="XMLID_79_">
		<path id="XMLID_114_" class="st0" d="M50.3,33.1c0,0,0-0.1,0-0.2c0-0.1,0-0.2,0.1-0.2c0.1,0,0.3-0.1,0.7-0.1c0.5,0,0.9,0,1.3-0.1
			s0.9-0.1,1.7-0.2c0.3,0,0.6-0.1,0.8-0.1c0.1,0,0.3,0,0.4,0c0.1,0,0.2,0,0.3,0c0.1,0,0.1,0.1,0.1,0.1c0,0.1,0,0.1,0,0.2
			c0,0.2-0.1,0.2-0.2,0.2c-0.1,0-0.2,0-0.3,0c-0.1,0-0.3,0-0.5,0c-0.2,0-0.5,0-0.9,0.1c-0.3,0-0.5,0.1-0.6,0.2
			c0,0.1-0.1,0.5-0.2,1.4c-0.1,0.8-0.1,1.5-0.1,1.9c0,0.2,0,0.4,0.1,0.7c0,0,0,0.1,0,0.1c0,0.1,0,0.2-0.1,0.3s-0.1,0.1-0.2,0.1
			c-0.1,0-0.2-0.1-0.3-0.2c-0.1-0.1-0.1-0.4-0.1-1c0-0.5,0.1-1.5,0.3-3c0-0.1,0-0.1,0-0.1c0-0.1,0-0.1-0.1-0.1c-0.1,0-0.4,0-0.8,0.1
			c-0.4,0-0.7,0.1-0.8,0.1C50.6,33.2,50.4,33.2,50.3,33.1z"/>
		<path id="XMLID_111_" class="st0" d="M58.1,35.8c-0.3,0.5-0.6,0.9-0.9,1.2c-0.3,0.3-0.6,0.4-0.9,0.4c-0.2,0-0.3-0.1-0.5-0.3
			c-0.2-0.2-0.2-0.5-0.2-0.8c0-0.3,0.1-0.8,0.2-1.4c0.1-0.5,0.2-0.8,0.2-1c0.1-0.1,0.2-0.2,0.3-0.2c0.1,0,0.2,0,0.2,0.1
			c0.1,0.1,0.1,0.1,0.1,0.2c0,0.2-0.1,0.4-0.2,0.7c-0.2,0.6-0.3,1.1-0.3,1.5c0,0.4,0.1,0.6,0.3,0.6c0.2,0,0.5-0.2,0.9-0.6
			c0.4-0.4,0.7-0.9,0.9-1.6c0.1-0.3,0.2-0.5,0.2-0.5c0.1-0.1,0.1-0.1,0.3-0.1c0.2,0,0.2,0.1,0.2,0.3c0,0,0,0.1-0.1,0.3
			c-0.1,0.5-0.2,1-0.2,1.4c0,0.5,0.1,0.9,0.3,1.1c0.1,0.1,0.1,0.2,0.1,0.2c0,0.1,0,0.1-0.1,0.2c-0.1,0.1-0.2,0.1-0.3,0.1
			c-0.2,0-0.3-0.1-0.4-0.4c-0.1-0.2-0.2-0.6-0.2-1.1v-0.1C58.1,35.9,58.1,35.9,58.1,35.8z M58.4,34.9c-0.1,0-0.1-0.1-0.1-0.1
			c0-0.1,0-0.1,0-0.2c0-0.1,0.1-0.1,0.1-0.2c0,0,0.1,0,0.2,0c0.1,0,0.2,0,0.2,0c0.1,0,0.1-0.1,0.2-0.2c0.1-0.1,0.1-0.1,0.1-0.2
			c0-0.1,0-0.2-0.1-0.3c-0.1-0.2-0.1-0.3-0.1-0.3c0.1-0.2,0.2-0.3,0.3-0.3c0,0,0.1,0.1,0.2,0.2c0.1,0.1,0.2,0.2,0.2,0.4
			c0,0.2,0,0.3,0,0.4c0,0.1-0.1,0.3-0.3,0.5c-0.1,0.2-0.2,0.3-0.3,0.3c0,0-0.1,0-0.3,0.1C58.5,34.9,58.4,34.9,58.4,34.9z"/>
		<path id="XMLID_109_" class="st0" d="M63.8,37.4c0-0.1-0.1-0.5-0.3-1c-0.4-1.1-0.6-1.8-0.6-2.2c0-0.3,0.1-0.5,0.3-0.5
			c0.2,0,0.3,0.1,0.3,0.4c0,0.2,0,0.4,0,0.6c0,0.1,0.1,0.4,0.2,0.7c0.1,0.3,0.2,0.7,0.3,1c0.1,0.2,0.1,0.3,0.1,0.4
			c0-0.1,0.1-0.2,0.2-0.3c0.4-0.7,0.7-1.2,1-1.6c0.2-0.4,0.4-0.6,0.6-0.8c0.2-0.2,0.3-0.3,0.3-0.3c0.1,0,0.1-0.1,0.2-0.1
			c0.1,0,0.2,0,0.2,0.1c0.1,0.1,0.1,0.1,0.1,0.2c0,0.1-0.1,0.2-0.3,0.4c-0.2,0.1-0.4,0.4-0.8,0.9c-0.4,0.5-0.7,1.1-1.1,1.9
			c-0.2,0.4-0.4,0.6-0.5,0.6C64,37.6,63.9,37.5,63.8,37.4z"/>
		<path id="XMLID_104_" class="st0" d="M69.5,36.1c-0.3,0.4-0.7,0.8-1,1c-0.3,0.2-0.6,0.3-0.9,0.3c-0.2,0-0.3-0.1-0.5-0.2
			C67.1,37,67,36.8,67,36.6c0-0.6,0.3-1.3,0.8-2c0.5-0.7,1.1-1.1,1.6-1.1c0.2,0,0.3,0.1,0.4,0.3c0,0.1,0.1,0.1,0.1,0.1
			c0.2,0,0.3,0.1,0.3,0.2c0,0.1,0,0.2,0,0.3c-0.1,0.7-0.2,1.2-0.2,1.5c0,0.6,0.1,0.9,0.3,1c0.1,0.1,0.2,0.1,0.2,0.2
			c0,0.1-0.1,0.1-0.2,0.2c-0.1,0.1-0.2,0.1-0.3,0.1c-0.2,0-0.3-0.1-0.4-0.4C69.6,36.9,69.5,36.5,69.5,36.1z M69.3,34.1
			c-0.3,0-0.7,0.3-1.1,0.9c-0.4,0.6-0.6,1.1-0.6,1.4c0,0.3,0.1,0.4,0.3,0.4c0.3,0,0.6-0.3,1.1-0.8c0.5-0.5,0.7-1,0.7-1.4
			C69.7,34.3,69.5,34.1,69.3,34.1z M70.1,32.5L70.1,32.5C70.2,32.5,70.2,32.6,70.1,32.5C70.2,32.6,70.2,32.6,70.1,32.5
			c0.1,0.1,0.1,0.1,0.1,0.1c0,0,0,0,0.1,0.1c0,0.1,0.1,0.1,0.1,0.2c0,0,0.1,0.1,0.1,0.1c0,0,0,0,0,0.1c0,0,0,0,0,0.1
			c0,0,0,0.1,0,0.1c0,0,0,0.1-0.1,0.1s0,0-0.1,0.1s-0.1,0-0.1,0c-0.1,0-0.2-0.1-0.4-0.3c0,0,0-0.1-0.1-0.1c0,0-0.1-0.1-0.1-0.1h0
			c0,0-0.1-0.1-0.1-0.1c0,0-0.1-0.1-0.1-0.1c0-0.1,0-0.1,0-0.1c0,0-0.1,0.1-0.3,0.3c-0.1,0.1-0.1,0.2-0.2,0.2
			C69,33,69,33.1,68.9,33.1c0,0-0.1,0.1-0.1,0.1c0,0-0.1,0-0.1,0c-0.1,0-0.2-0.1-0.2-0.3c0,0,0-0.1,0-0.1c0,0,0-0.1,0-0.1
			c0,0,0,0,0.1-0.1c0,0,0,0,0.1-0.1c0,0,0,0,0.1-0.1c0,0,0,0,0.1-0.1c0,0,0.1-0.1,0.1-0.1c0,0,0.1-0.1,0.1-0.1
			c0.1,0,0.1-0.1,0.2-0.1c0.1-0.1,0.1-0.1,0.1-0.2c0.1-0.1,0.2-0.2,0.3-0.2c0.1,0,0.1,0,0.2,0.1c0,0,0,0.1,0.1,0.1
			c0,0.1,0.1,0.1,0.1,0.2c0,0,0,0.1,0,0.1C70.1,32.4,70.1,32.4,70.1,32.5C70.1,32.5,70.1,32.5,70.1,32.5
			C70.1,32.5,70.1,32.5,70.1,32.5L70.1,32.5L70.1,32.5z M70.3,31C70.3,31,70.3,31,70.3,31C70.3,31,70.3,31,70.3,31
			C70.3,31,70.3,31,70.3,31C70.3,31,70.3,31,70.3,31c-0.1,0.1-0.2,0.1-0.3,0.2c-0.1,0.1-0.3,0.2-0.4,0.3h0c-0.1,0.1-0.1,0.1-0.2,0.2
			s-0.1,0.1-0.1,0.1c0,0,0,0,0,0c0,0,0,0,0,0c0,0-0.1,0-0.1,0c0,0-0.1,0-0.1-0.1c0,0,0-0.1-0.1-0.1c0,0,0-0.1,0-0.1
			c0-0.1,0.1-0.3,0.4-0.5c0.1-0.1,0.3-0.2,0.4-0.3c0.1-0.1,0.2-0.1,0.3-0.2c0.1,0,0.1-0.1,0.2-0.1c0,0,0.1,0,0.1,0c0,0,0,0,0.1,0
			c0,0,0.1,0,0.1,0.1v0c0,0,0,0.1,0,0.1c0,0,0,0.1,0,0.1c0,0,0,0,0,0.1c0,0,0,0,0,0.1C70.4,30.9,70.4,30.9,70.3,31
			C70.4,31,70.4,31,70.3,31z"/>
		<path id="XMLID_102_" class="st0" d="M73.9,34.6c-0.1,0-0.3,0.1-0.4,0.2c-0.1,0.2-0.4,0.5-0.7,1.1c-0.4,0.7-0.6,1.2-0.8,1.3
			c-0.1,0.1-0.2,0.2-0.3,0.2c-0.3,0-0.4-0.1-0.4-0.4c0-0.1,0-0.3,0.1-0.5c0.1-0.7,0.2-1.4,0.2-2.2c0-0.1,0-0.2,0.1-0.3
			c0.1-0.1,0.1-0.2,0.2-0.2c0.1,0,0.2,0,0.3,0.1c0.1,0.1,0.1,0.2,0.1,0.5c0,0.2-0.1,0.7-0.2,1.5c0,0.2-0.1,0.4-0.1,0.5
			c0,0,0,0.1,0,0.1c0,0,0.2-0.3,0.5-0.8c0.3-0.6,0.5-1,0.8-1.2c0.2-0.2,0.5-0.3,0.7-0.3c0.2,0,0.4,0.1,0.5,0.3
			c0.1,0.2,0.2,0.5,0.3,1c0.1,0.6,0.1,0.9,0.2,1.1c0.1,0.1,0.1,0.2,0.3,0.2c0.1,0,0.2,0,0.3-0.1c0,0,0,0,0,0c0.1,0,0.2,0.1,0.2,0.2
			c0,0.1-0.1,0.2-0.2,0.3c-0.1,0.1-0.3,0.2-0.5,0.2c-0.2,0-0.4-0.1-0.5-0.2s-0.2-0.6-0.3-1.3C74.3,35,74.1,34.6,73.9,34.6z"/>
		<path id="XMLID_100_" class="st0" d="M80.9,33.8c0.2,0,0.5,0,0.7-0.1c0.2,0,0.4,0,0.5,0c0.2,0,0.3,0,0.3,0c0,0,0.1,0.1,0.1,0.2
			c0,0.2-0.1,0.3-0.4,0.3c-0.3,0-0.7,0.1-0.9,0.1c-0.3,0-0.4,0.1-0.5,0.1c0,0-0.1,0.3-0.2,0.8c-0.1,0.5-0.2,0.9-0.2,1
			c0,0.3,0,0.4,0.1,0.5c0.1,0.1,0.2,0.1,0.3,0.1c0.2,0,0.5-0.2,0.8-0.5c0.1-0.1,0.2-0.2,0.3-0.2c0.1,0,0.2,0.1,0.2,0.2
			c0,0.2-0.2,0.4-0.5,0.7c-0.3,0.3-0.7,0.4-1,0.4c-0.6,0-0.8-0.3-0.8-1c0-0.2,0.1-0.6,0.2-1.1c0.1-0.5,0.2-0.8,0.2-0.9
			c0,0,0-0.1-0.1-0.1l-0.4,0c-0.3,0-0.4-0.1-0.4-0.4c0-0.1,0.1-0.2,0.2-0.2h0.7c0,0,0.1,0,0.1-0.1c0,0,0.1-0.2,0.2-0.4
			c0.1-0.3,0.1-0.5,0.2-0.8c0.1-0.2,0.2-0.4,0.3-0.4c0.1,0,0.2,0,0.2,0.1c0.1,0.1,0.1,0.1,0.1,0.2c0,0,0,0.2-0.1,0.5L80.9,33.8z"/>
		<path id="XMLID_97_" class="st0" d="M83.6,36.6c0,0.2,0,0.4,0.1,0.6c0,0,0,0.1,0,0.1c0,0,0,0.1-0.1,0.2c-0.1,0.1-0.2,0.1-0.2,0.1
			c-0.2,0-0.3-0.2-0.3-0.6c0-0.4,0.1-1.1,0.3-2c0.1-0.3,0.1-0.5,0.1-0.6c0-0.1,0-0.3,0.1-0.4c0.1-0.1,0.1-0.2,0.2-0.2
			c0.1,0,0.2,0,0.3,0.1c0.1,0.1,0.1,0.1,0.1,0.2s0,0.2,0,0.3c-0.2,0.6-0.3,1.1-0.3,1.3C83.6,35.9,83.6,36.2,83.6,36.6z M84.1,32.7
			c0,0-0.1-0.1-0.1-0.2c0,0,0-0.1,0-0.1c-0.1-0.2-0.1-0.3-0.1-0.4c0-0.1,0.1-0.2,0.2-0.3c0.1-0.1,0.2-0.1,0.4-0.1
			c0.1,0,0.1,0,0.2,0.1c0.1,0.1,0.1,0.1,0.1,0.2c0,0.1,0,0.2-0.1,0.4c-0.1,0.2-0.1,0.3-0.3,0.4C84.2,32.6,84.1,32.7,84.1,32.7z"/>
		<path id="XMLID_93_" class="st0" d="M88.2,36.2c0,0.2-0.2,0.5-0.6,0.9c-0.4,0.3-0.9,0.5-1.3,0.5c-0.4,0-0.7-0.1-0.9-0.3
			C85.1,37,85,36.7,85,36.3c0-0.7,0.2-1.3,0.7-1.9c0.5-0.6,0.9-0.9,1.5-0.9c0.2,0,0.3,0.1,0.4,0.2c0.1,0.1,0.2,0.3,0.2,0.4
			c0,0.4-0.2,0.7-0.5,1c-0.4,0.3-0.8,0.7-1.4,1c-0.1,0.1-0.2,0.1-0.2,0.2c0,0.2,0.1,0.3,0.2,0.5c0.1,0.1,0.3,0.2,0.5,0.2
			c0.5,0,1-0.3,1.5-0.8C87.9,36,88,36,88,36C88.1,36,88.2,36,88.2,36.2z M85.7,35.6c1-0.6,1.5-1.1,1.5-1.4c0-0.1-0.1-0.2-0.2-0.2
			c-0.2,0-0.5,0.2-0.7,0.5C86,34.8,85.8,35.1,85.7,35.6z M87.7,32.5L87.7,32.5C87.8,32.5,87.8,32.6,87.7,32.5
			C87.8,32.6,87.8,32.6,87.7,32.5c0.1,0.1,0.1,0.1,0.1,0.1c0,0,0,0,0.1,0.1c0,0.1,0.1,0.1,0.1,0.2c0,0,0.1,0.1,0.1,0.1
			c0,0,0,0,0,0.1c0,0,0,0,0,0.1c0,0,0,0.1,0,0.1c0,0,0,0.1-0.1,0.1c0,0,0,0-0.1,0.1s-0.1,0-0.1,0c-0.1,0-0.2-0.1-0.4-0.3
			c0,0,0-0.1-0.1-0.1c0,0-0.1-0.1-0.1-0.1h0c0,0-0.1-0.1-0.1-0.1c0,0-0.1-0.1-0.1-0.1c0-0.1,0-0.1,0-0.1c0,0-0.1,0.1-0.3,0.3
			c-0.1,0.1-0.1,0.2-0.2,0.2c-0.1,0.1-0.1,0.1-0.2,0.2c0,0-0.1,0.1-0.1,0.1c0,0-0.1,0-0.1,0c-0.1,0-0.2-0.1-0.2-0.3c0,0,0-0.1,0-0.1
			c0,0,0-0.1,0-0.1s0,0,0.1-0.1c0,0,0,0,0.1-0.1c0,0,0,0,0.1-0.1c0,0,0,0,0.1-0.1c0,0,0.1-0.1,0.1-0.1c0,0,0.1-0.1,0.1-0.1
			c0.1,0,0.1-0.1,0.2-0.1c0.1-0.1,0.1-0.1,0.1-0.2c0.1-0.1,0.2-0.2,0.3-0.2c0.1,0,0.1,0,0.2,0.1c0,0,0,0.1,0.1,0.1
			c0,0.1,0.1,0.1,0.1,0.2c0,0,0,0.1,0,0.1C87.7,32.4,87.7,32.4,87.7,32.5C87.7,32.5,87.7,32.5,87.7,32.5
			C87.7,32.5,87.7,32.5,87.7,32.5L87.7,32.5L87.7,32.5z"/>
		<path id="XMLID_91_" class="st0" d="M91.5,35.8c-0.3,0.5-0.6,0.9-0.9,1.2c-0.3,0.3-0.6,0.4-0.9,0.4c-0.2,0-0.3-0.1-0.5-0.3
			c-0.2-0.2-0.2-0.5-0.2-0.8c0-0.3,0.1-0.8,0.2-1.4c0.1-0.5,0.2-0.8,0.2-1c0.1-0.1,0.2-0.2,0.3-0.2c0.1,0,0.2,0,0.2,0.1
			c0.1,0.1,0.1,0.1,0.1,0.2c0,0.2-0.1,0.4-0.2,0.7c-0.2,0.6-0.3,1.1-0.3,1.5c0,0.4,0.1,0.6,0.3,0.6c0.2,0,0.5-0.2,0.9-0.6
			c0.4-0.4,0.7-0.9,0.9-1.6c0.1-0.3,0.2-0.5,0.2-0.5c0.1-0.1,0.1-0.1,0.3-0.1c0.2,0,0.2,0.1,0.2,0.3c0,0,0,0.1-0.1,0.3
			C92.1,35,92,35.5,92,36c0,0.5,0.1,0.9,0.3,1.1c0.1,0.1,0.1,0.2,0.1,0.2c0,0.1,0,0.1-0.1,0.2c-0.1,0.1-0.2,0.1-0.3,0.1
			c-0.2,0-0.3-0.1-0.4-0.4c-0.1-0.2-0.2-0.6-0.2-1.1v-0.1C91.5,35.9,91.5,35.9,91.5,35.8z"/>
		<path id="XMLID_88_" class="st0" d="M99.1,35.9c-0.3,0.5-0.6,0.9-1,1.2c-0.4,0.3-0.7,0.4-1,0.4c-0.2,0-0.4-0.1-0.5-0.3
			c-0.1-0.2-0.2-0.4-0.2-0.7c0-0.6,0.2-1.2,0.7-1.8c0.5-0.6,1-0.9,1.6-0.9c0.2,0,0.5,0.1,0.7,0.3l0.5-2.3c0-0.2,0.1-0.3,0.2-0.3
			c0.1-0.1,0.2-0.1,0.2-0.1c0.2,0,0.2,0.1,0.2,0.4c0,0.1-0.1,0.2-0.2,0.6c-0.2,0.5-0.3,1.1-0.5,1.9c-0.2,0.7-0.2,1.3-0.2,1.8
			c0,0.5,0.1,0.7,0.3,0.7c0.1,0,0.3,0,0.4-0.1c0.1,0,0.1-0.1,0.2-0.1c0.1,0,0.1,0,0.1,0.1c0,0.1-0.1,0.3-0.3,0.4
			c-0.2,0.2-0.4,0.2-0.6,0.2c-0.4,0-0.6-0.4-0.6-1.1C99.1,36.1,99.1,36,99.1,35.9z M98.6,34.3c-0.4,0-0.8,0.3-1.1,0.8
			c-0.4,0.5-0.6,1-0.6,1.4c0,0.3,0.1,0.4,0.3,0.4c0.2,0,0.4-0.1,0.7-0.3s0.5-0.5,0.8-0.9c0.3-0.4,0.4-0.7,0.4-0.9
			c0-0.1,0-0.2-0.1-0.3C98.9,34.3,98.8,34.3,98.6,34.3z"/>
		<path id="XMLID_85_" class="st0" d="M103.9,35.8c-0.3,0.5-0.6,0.9-0.9,1.2c-0.3,0.3-0.6,0.4-0.9,0.4c-0.2,0-0.3-0.1-0.5-0.3
			c-0.2-0.2-0.2-0.5-0.2-0.8c0-0.3,0.1-0.8,0.2-1.4c0.1-0.5,0.2-0.8,0.2-1c0.1-0.1,0.2-0.2,0.3-0.2c0.1,0,0.2,0,0.2,0.1
			c0.1,0.1,0.1,0.1,0.1,0.2c0,0.2-0.1,0.4-0.2,0.7c-0.2,0.6-0.3,1.1-0.3,1.5c0,0.4,0.1,0.6,0.3,0.6c0.2,0,0.5-0.2,0.9-0.6
			c0.4-0.4,0.7-0.9,0.9-1.6c0.1-0.3,0.2-0.5,0.2-0.5c0.1-0.1,0.1-0.1,0.3-0.1c0.2,0,0.2,0.1,0.2,0.3c0,0,0,0.1-0.1,0.3
			c-0.1,0.5-0.2,1-0.2,1.4c0,0.5,0.1,0.9,0.3,1.1c0.1,0.1,0.1,0.2,0.1,0.2c0,0.1,0,0.1-0.1,0.2c-0.1,0.1-0.2,0.1-0.3,0.1
			c-0.2,0-0.3-0.1-0.4-0.4c-0.1-0.2-0.2-0.6-0.2-1.1v-0.1C103.9,35.9,103.9,35.9,103.9,35.8z M103.1,32.7L103.1,32.7
			C103.1,32.7,103.1,32.7,103.1,32.7C103.1,32.7,103.1,32.7,103.1,32.7C103.1,32.7,103.1,32.7,103.1,32.7
			C103.1,32.7,103.1,32.7,103.1,32.7C103.1,32.7,103,32.7,103.1,32.7C103,32.7,103,32.7,103.1,32.7L103.1,32.7
			c-0.1-0.1-0.1-0.1-0.1-0.1c0,0-0.1,0-0.1-0.1c-0.1-0.1-0.2-0.2-0.3-0.3c-0.1-0.1-0.1-0.1-0.1-0.2c0,0,0-0.1,0-0.1c0,0,0,0,0.1-0.1
			c0,0,0.1,0,0.1-0.1c0,0,0.1,0,0.1,0c0,0,0.1,0,0.2,0.1c0.1,0.1,0.2,0.1,0.3,0.2c0,0,0.1,0.1,0.2,0.1c0.1,0.1,0.1,0.1,0.2,0.2
			c0.1,0.1,0.1,0.1,0.2,0.2c0.1,0.1,0.1,0.1,0.1,0.1c0,0.1,0.1,0.1,0.1,0.2c0,0.1,0,0.1-0.1,0.2c-0.1,0.1-0.1,0.1-0.2,0.1
			c0,0,0,0-0.1,0c0,0-0.1,0-0.1-0.1L103.1,32.7z"/>
		<path id="XMLID_83_" class="st0" d="M108.3,34.6c-0.1,0-0.3,0.1-0.4,0.2c-0.1,0.2-0.4,0.5-0.7,1.1c-0.4,0.7-0.6,1.2-0.8,1.3
			c-0.1,0.1-0.2,0.2-0.3,0.2c-0.3,0-0.4-0.1-0.4-0.4c0-0.1,0-0.3,0.1-0.5c0.1-0.7,0.2-1.4,0.2-2.2c0-0.1,0-0.2,0.1-0.3
			c0.1-0.1,0.1-0.2,0.2-0.2c0.1,0,0.2,0,0.3,0.1c0.1,0.1,0.1,0.2,0.1,0.5c0,0.2-0.1,0.7-0.2,1.5c0,0.2-0.1,0.4-0.1,0.5
			c0,0,0,0.1,0,0.1c0,0,0.2-0.3,0.5-0.8c0.3-0.6,0.5-1,0.8-1.2c0.2-0.2,0.5-0.3,0.7-0.3c0.2,0,0.4,0.1,0.5,0.3
			c0.1,0.2,0.2,0.5,0.3,1c0.1,0.6,0.1,0.9,0.2,1.1c0.1,0.1,0.1,0.2,0.3,0.2c0.1,0,0.2,0,0.3-0.1c0,0,0,0,0,0c0.1,0,0.2,0.1,0.2,0.2
			c0,0.1-0.1,0.2-0.2,0.3c-0.1,0.1-0.3,0.2-0.5,0.2c-0.2,0-0.4-0.1-0.5-0.2c-0.1-0.2-0.2-0.6-0.3-1.3
			C108.7,35,108.6,34.6,108.3,34.6z"/>
		<path id="XMLID_80_" class="st0" d="M113.3,36.1c0,0-0.1,0-0.2,0.2c-0.2,0.3-0.5,0.5-0.8,0.7c-0.3,0.2-0.6,0.3-0.9,0.3
			c-0.2,0-0.4-0.1-0.5-0.2c-0.1-0.1-0.2-0.3-0.2-0.5c0-0.4,0.1-0.8,0.4-1.2c0.3-0.4,0.7-0.8,1.1-1.2c0.5-0.3,0.9-0.5,1.3-0.5
			c0.2,0,0.4,0.1,0.5,0.2c0,0,0.1,0.1,0.1,0.1c0,0,0.1,0.1,0.1,0.2c0,0.1,0.1,0.2,0.1,0.2c0,0,0,0.1,0,0.2c-0.1,0.4-0.2,0.7-0.3,1
			c-0.1,0.3-0.1,0.7-0.2,1.3c-0.1,0.5-0.1,1-0.2,1.2c-0.1,0.3-0.2,0.6-0.4,0.8c-0.2,0.3-0.4,0.5-0.6,0.6c-0.2,0.1-0.5,0.2-0.7,0.2
			c-0.4,0-0.9-0.2-1.3-0.5s-0.6-0.5-0.6-0.7c0-0.1,0-0.2,0.1-0.2c0,0,0.2,0.1,0.4,0.2c0.5,0.4,1,0.5,1.5,0.5c0.4,0,0.7-0.2,0.9-0.6
			c0.2-0.4,0.3-1,0.4-1.8C113.3,36.4,113.3,36.2,113.3,36.1z M113.3,34.1c-0.2,0-0.4,0.1-0.7,0.3c-0.3,0.2-0.6,0.5-0.9,0.9
			c-0.3,0.4-0.4,0.7-0.4,1c0,0.1,0,0.2,0.1,0.2c0.1,0.1,0.1,0.1,0.2,0.1c0.2,0,0.5-0.1,0.8-0.3c0.3-0.2,0.6-0.5,0.9-0.9
			c0.2-0.4,0.4-0.7,0.4-0.9C113.6,34.3,113.5,34.1,113.3,34.1z"/>
	</g>
	<g id="XMLID_59_">
		<path id="XMLID_78_" class="st0" d="M115.1,20.6L115.1,20.6c0-0.1,0-0.1,0-0.2c0-0.1-0.1-0.2-0.1-0.3c-0.2-1-0.5-1.8-0.9-2.5
			c-0.8-1-2.1-1.6-3.5-1.6c-1.5,0-2.8,0.7-3.6,1.9c-0.1,0.1-0.1,0.2-0.2,0.3l0,0c-0.7-1.4-1.9-2.1-3.5-2.1c0,0,0,0,0,0
			c-1.6,0-2.8,0.6-3.7,1.7c0-0.1,0-0.2,0-0.3c0-0.4-0.2-0.7-0.5-0.9c-0.3-0.2-0.6-0.3-1-0.3c-0.8,0.1-1.2,0.7-1.2,1.6
			c0,3,0,6,0.1,8.8c0,0.3,0,0.6,0.1,0.8c0.2,0.5,0.7,0.8,1.2,0.8c0.1,0,0.2,0,0.3,0c0.6-0.1,1.1-0.7,1.1-1.3c0-0.9,0-1.8,0-2.7
			c0-0.7,0-1.4,0-2.1c0-0.4,0-0.8,0.1-1.1c0.2-1.4,1.3-2.3,2.9-2.2c1.2,0.1,2,1,2.1,2.4c0,1.1,0,2.2,0.1,3.2c0,0.7,0,1.4,0,2
			c0,0.4,0.1,0.7,0.2,0.9c0.2,0.6,0.8,0.9,1.5,0.7c0.7-0.1,1.1-0.7,1.1-1.4c0-0.7,0-1.3,0-2c0-0.9,0-1.8,0-2.7c0-0.6,0.1-1,0.2-1.4
			c0.3-1,1-1.6,2.1-1.8c0.8-0.1,1.8,0,2.3,1c0.2,0.5,0.4,1.1,0.4,1.8c0,1.1,0,2.2,0,3.3c0,0.6,0,1.2,0,1.8c0,0.7,0.5,1.3,1.1,1.4
			c0.7,0.1,1.3-0.2,1.6-0.9c0,0,0-0.1,0.1-0.1c0,0,0,0,0-0.1l0,0L115.1,20.6z"/>
		<path id="XMLID_77_" class="st0" d="M70.1,25.6c-0.5,0.2-0.8,0.7-0.9,1.1l0,0l0,0.6l0.1,0.1c0,0.1,0.1,0.2,0.1,0.2
			c0.3,0.5,0.8,0.8,1.3,0.8c0.3,0,0.5-0.1,0.8-0.2c0.7-0.4,1-1.2,0.6-1.9C71.8,25.6,70.9,25.3,70.1,25.6z"/>
		<path id="XMLID_74_" class="st0" d="M89.6,15.9C89.6,15.9,89.6,15.9,89.6,15.9c-1.8,0-3.3,0.6-4.4,1.8c-1.1,1.1-1.7,2.7-1.7,4.4
			c0,1.7,0.7,3.2,1.8,4.3c1.1,1.1,2.6,1.7,4.3,1.7c0,0,0.1,0,0.1,0c1.7,0,3.2-0.7,4.3-1.8c1.1-1.1,1.7-2.7,1.7-4.4
			C95.7,18.4,93.1,15.9,89.6,15.9z M89.6,25.4c-2,0-3.4-1.4-3.4-3.5c0-1.9,1.4-3.4,3.3-3.4c0,0,0,0,0.1,0c0.9,0,1.8,0.3,2.4,0.9
			c0.6,0.6,1,1.5,1,2.4c0,1-0.3,1.9-1,2.5C91.5,25.1,90.6,25.4,89.6,25.4C89.6,25.4,89.6,25.4,89.6,25.4z"/>
		<path id="XMLID_73_" class="st0" d="M81.6,24.9c-0.1,0.1-0.3,0.1-0.4,0.2c-0.2,0.1-0.4,0.2-0.6,0.3c-1.4,0.5-3,0.1-3.9-0.9
			c-0.9-1-1.1-2.6-0.5-3.8c0.6-1.3,2-2,3.5-1.9c0.5,0,0.9,0.2,1.3,0.4c0.2,0.1,0.4,0.2,0.7,0.2c0.7,0.2,1.3,0,1.6-0.6
			c0.3-0.6,0.1-1.3-0.5-1.7c-2.5-1.7-6.5-1.1-8.3,1.3c-1.5,2-1.8,4.3-0.6,6.6c1,2,2.9,3.2,5.2,3.3h0h0c1.7,0,2.8-0.3,3.9-1
			c0.7-0.5,0.9-1.2,0.5-1.8C83.1,24.8,82.4,24.6,81.6,24.9z"/>
		<path id="XMLID_70_" class="st0" d="M47.4,16.2c-0.8,0-1.3,0.6-1.4,1.4c0,0,0,0,0,0c-0.2-0.2-0.4-0.3-0.6-0.5
			c-1.6-1.2-3.5-1.4-5.4-0.5c-1.8,0.8-3.1,2.3-3.4,4.3c-0.4,2.1,0.2,4.3,1.6,5.7c1.2,1.1,3,1.8,4.7,1.6c1.3-0.1,2.4-0.6,3.1-1.5
			c0,0,0,0.1,0,0.1c0,0.5-0.1,0.9-0.1,1.4c-0.2,1.3-0.8,2.2-1.9,2.6c-1.6,0.6-3,0.3-4.2-0.9c-0.7-0.6-1.5-0.7-2-0.1
			c-0.5,0.5-0.5,1.3,0.1,2c1.2,1.3,2.7,2,4.4,2c0,0,0.1,0,0.1,0c2.5,0,4.2-0.9,5.3-2.7c0.7-1.1,1-2.5,1.1-4c0-1.6,0-3.2,0.1-4.7
			c0-0.5,0-0.9,0-1.4l0-0.5c0-0.9,0-1.9,0-2.8C48.8,16.8,48.2,16.2,47.4,16.2z M45.7,23.8c-0.1,0.2-0.2,0.3-0.4,0.5
			c-0.6,0.6-1.9,1.2-2.7,1.2c-1.9,0-3.3-1.4-3.3-3.4c0-0.9,0.3-1.8,1-2.4c0.6-0.6,1.5-0.9,2.4-0.9c1.9,0,3.3,1.4,3.3,3.3
			C46,22.8,46,23.3,45.7,23.8C45.8,23.7,45.7,23.8,45.7,23.8z"/>
		<path id="XMLID_67_" class="st0" d="M67.5,17.7c0-0.1,0-0.3-0.1-0.4c-0.2-0.7-0.8-1.1-1.5-1.1c-0.7,0-1.2,0.6-1.3,1.2
			c0,0,0,0.1,0,0.1c-1.2-1.3-2.9-1.8-4.8-1.4c-2.1,0.4-3.7,1.7-4.4,3.7c-0.7,2.1-0.3,4.6,1,6.3c1.1,1.2,2.8,2,4.5,2c0,0,0,0,0,0
			c1.4,0,2.7-0.5,3.6-1.5c0,0.1,0,0.1,0,0.2c0.1,0.4,0.3,0.8,0.6,1c0.3,0.2,0.8,0.3,1.1,0.2c0.6-0.2,1-0.7,1-1.4c0-2.5,0-5,0-7.5
			L67.5,17.7z M64.7,22.1c0,0.9-0.4,1.8-1,2.4c-0.6,0.6-1.5,0.9-2.4,0.9c-1.9,0-3.3-1.5-3.2-3.4c0-0.9,0.4-1.7,1-2.3
			c0.6-0.6,1.5-0.9,2.4-0.9c0.9,0,1.8,0.4,2.3,1C64.4,20.4,64.7,21.2,64.7,22.1z"/>
		<path id="XMLID_66_" class="st0" d="M52.1,16.2c-0.4,0-0.7,0.1-1,0.4c-0.3,0.3-0.4,0.7-0.4,1.2c0,3.2,0,6.4,0,8.8
			c0,0.2,0,0.4,0.1,0.7c0.2,0.5,0.7,0.8,1.3,0.8c0.1,0,0.2,0,0.3,0c0.7-0.1,1.1-0.7,1.1-1.3c0-1.1,0-2.2,0-3.3c0-0.4,0-0.8,0-1.1h0
			v-0.2c0-0.4,0-0.9,0-1.3c0-1,0-2,0-3.1C53.5,16.8,52.9,16.2,52.1,16.2z"/>
		<polygon id="XMLID_65_" class="st0" points="13.8,4.9 16.3,3.4 18.7,4.9 18.7,4.9 17.2,2.5 18.7,0 16.3,1.5 13.8,0 15.3,2.5 
			13.8,4.9 		"/>
		<path id="XMLID_64_" class="st0" d="M5.5,22.4c-3.2-0.5-5.5-11-5.5-11c0.8,17.3,6.3,16.7,6.3,16.7c7.5,0,10-23.3,10-23.3
			C11.7,17.9,8.7,22.9,5.5,22.4z"/>
		<path id="XMLID_61_" class="st0" d="M27.5,22.7c0-1.6,0-3.2,0-4.8c0-0.2,0-0.4-0.1-0.5c-0.2-0.7-0.8-1.1-1.5-1.1
			c-0.7,0-1.2,0.6-1.3,1.2c0,0,0,0.1,0,0.1c0,0,0,0,0,0c-0.2-0.2-0.4-0.4-0.6-0.5c-1.1-0.8-2.6-1.1-4.1-0.9c-1.6,0.3-3,1.2-3.9,2.5
			c-0.4,0.6-0.6,1.2-0.7,1.8c-0.1,0.6-0.3,1.6-0.1,2.6c0,0,0,0.1,0,0.1c0,0.1,0,0.2,0,0.2c0,0.2,0.1,0.3,0.1,0.3
			c0.5,1.8,1.6,3.1,3.4,3.9c0.7,0.3,1.5,0.5,2.3,0.5c1.4,0,2.7-0.5,3.6-1.4c0.1-0.1,0.1-0.1,0.2-0.2c0,0.1,0,0.1,0,0.2
			c0.1,0.5,0.4,0.9,0.8,1.1c0.4,0.2,0.9,0.2,1.3-0.1c0.6-0.4,0.7-1,0.7-1.4C27.5,25.2,27.5,23.9,27.5,22.7z M21.3,25.4
			C21.3,25.4,21.3,25.4,21.3,25.4c-2,0-3.3-1.5-3.3-3.4c0-0.9,0.3-1.7,0.9-2.3c0.6-0.6,1.5-0.9,2.4-0.9c0.9,0,1.8,0.4,2.4,1
			c0.6,0.6,0.9,1.4,0.9,2.3C24.6,24.1,23.2,25.4,21.3,25.4z"/>
		<path id="XMLID_60_" class="st0" d="M34.8,16.3c-0.3,0-0.6,0-1,0c-0.1,0-0.2,0-0.3,0c0-0.3,0-0.5,0-0.8c0-0.7,0-1.4,0-2
			c0-0.5-0.2-0.9-0.5-1.2c-0.3-0.3-0.6-0.4-1-0.4c0,0,0,0,0,0c-0.8,0-1.4,0.7-1.4,1.6c0,0.4,0,0.8,0,1.2c0,0.2,0,0.3,0,0.5v1.1
			c-0.1,0-0.1,0-0.2,0c-0.2,0-0.4,0-0.6,0c-0.4,0-0.8,0.1-1.1,0.4c-0.2,0.2-0.3,0.5-0.3,0.8c0,0.7,0.6,1.1,1.4,1.1
			c0.2,0,0.4,0,0.6,0c0.1,0,0.1,0,0.2,0l0,2c0,1.6,0,3.2,0,4.9l0,0h0c0,0.3,0,0.6,0,0.9c0,0.1,0,0.2,0,0.3c0,0.5,0.3,0.9,0.7,1.2
			c0.2,0.1,0.4,0.2,0.7,0.2c0,0,0,0,0.1,0c0,0,0,0,0.1,0c0.2,0,0.4-0.1,0.7-0.2c0.4-0.2,0.7-0.7,0.7-1.2c0-0.1,0-0.2,0-0.3
			c0-1.7,0-3.5,0-5.2c0-0.7,0-1.4,0-2.1v-0.4c0.1,0,0.2,0,0.3,0c0.3,0,0.7,0,1,0c0.7,0,1.2-0.5,1.2-1.2
			C36.1,16.8,35.5,16.3,34.8,16.3z"/>
	</g>
</g>
</svg>
